<svg width="600" height="300" xmlns="http://www.w3.org/2000/svg">
  <!-- AWS Server box -->
  <rect x="10" y="20" width="280" height="260" fill="#D1E8FF" stroke="#0077CC" stroke-width="2" rx="8" ry="8"></rect>
  <text x="150" y="45" font-family="Arial" font-weight="bold" font-size="16" fill="#004A99" text-anchor="middle">AWS Server</text>
  
  <!-- nginx container -->
  <rect x="40" y="70" width="220" height="60" fill="#0052CC" stroke="#003D99" stroke-width="2" rx="6" ry="6"></rect>
  <text x="150" y="105" font-family="Arial" font-size="14" fill="white" text-anchor="middle">nginx (reverse proxy)</text>
  
  <!-- raybeststar_web container -->
  <rect x="40" y="150" width="220" height="60" fill="#0073E6" stroke="#004A99" stroke-width="2" rx="6" ry="6"></rect>
  <text x="150" y="185" font-family="Arial" font-size="14" fill="white" text-anchor="middle">raybeststar_web (React App)</text>

  <!-- Supabase box -->
  <rect x="330" y="70" width="260" height="210" fill="#FFEDD5" stroke="#FFB347" stroke-width="2" rx="8" ry="8"></rect>
  <text x="460" y="100" font-family="Arial" font-weight="bold" font-size="16" fill="#B35A00" text-anchor="middle">supabase.com</text>

  <!-- Edge Function -->
  <rect x="370" y="130" width="200" height="60" fill="#FFB347" stroke="#CC8400" stroke-width="2" rx="6" ry="6"></rect>
  <text x="470" y="165" font-family="Arial" font-size="14" fill="#663300" text-anchor="middle">Edge Function: submit-message</text>

  <!-- Database -->
  <rect x="400" y="210" width="140" height="60" fill="#FFD580" stroke="#CCAA33" stroke-width="2" rx="6" ry="6"></rect>
  <text x="470" y="245" font-family="Arial" font-size="14" fill="#664400" text-anchor="middle">Database Table: message</text>

  <!-- Arrows -->
  <!-- raybeststar_web to Edge Function -->
  <line x1="260" y1="180" x2="370" y2="160" stroke="#0077CC" stroke-width="3" marker-end="url(#arrowhead)"></line>
  <text x="310" y="170" font-family="Arial" font-size="12" fill="#0077CC">HTTPS Request</text>

  <!-- Edge Function to raybeststar_web -->
  <line x1="370" y1="190" x2="260" y2="210" stroke="#0077CC" stroke-width="3" marker-end="url(#arrowhead)" stroke-dasharray="6 4"></line>
  <text x="310" y="205" font-family="Arial" font-size="12" fill="#0077CC">Response (JSON)</text>

  <!-- Edge Function to Database -->
  <line x1="470" y1="190" x2="470" y2="210" stroke="#CC8400" stroke-width="3" marker-end="url(#arrowhead)"></line>
  <text x="490" y="200" font-family="Arial" font-size="12" fill="#CC8400">Read/Write</text>

  <!-- Marker for arrows -->
  <defs>
    <marker id="arrowhead" markerWidth="10" markerHeight="7" refX="10" refY="3.5" orient="auto">
      <polygon points="0 0, 10 3.5, 0 7" fill="#0077CC"></polygon>
    </marker>
  </defs>
</svg>
